<mxfile host="app.diagrams.net" agent="Mozilla/5.0 (Windows NT 10.0; Win64; x64) AppleWebKit/537.36 (KHTML, like Gecko) Chrome/132.0.0.0 Safari/537.36 Edg/132.0.0.0" version="26.0.8">
  <diagram name="第 1 页" id="lFv3ArHSUXXjdDOWJILv">
    <mxGraphModel dx="2037" dy="1116" grid="1" gridSize="10" guides="1" tooltips="1" connect="1" arrows="1" fold="1" page="1" pageScale="1" pageWidth="827" pageHeight="1169" math="1" shadow="0">
      <root>
        <mxCell id="0" />
        <mxCell id="1" parent="0" />
        <mxCell id="CkDDalKu-k9pCfHGi__i-1" value="" style="shape=note;whiteSpace=wrap;html=1;backgroundOutline=1;darkOpacity=0.05;strokeWidth=3;shadow=1;fontSize=14;size=22;" vertex="1" parent="1">
          <mxGeometry x="1070" y="322" width="181" height="75" as="geometry" />
        </mxCell>
        <mxCell id="CkDDalKu-k9pCfHGi__i-2" value="&lt;b style=&quot;font-family: &amp;quot;Courier New&amp;quot;;&quot;&gt;&lt;font style=&quot;font-size: 11px;&quot;&gt;int(p=2)(2,2)&amp;nbsp;&lt;/font&gt;&lt;/b&gt;" style="shape=umlFrame;whiteSpace=wrap;html=1;pointerEvents=0;width=99;height=23;fillStyle=auto;shadow=0;strokeWidth=3;swimlaneFillColor=none;" vertex="1" parent="1">
          <mxGeometry x="495.5" y="452" width="516" height="40" as="geometry" />
        </mxCell>
        <mxCell id="CkDDalKu-k9pCfHGi__i-3" value="&lt;b style=&quot;font-family: &amp;quot;Courier New&amp;quot;;&quot;&gt;&lt;font style=&quot;&quot;&gt;int(p=1)&amp;nbsp;&lt;/font&gt;&lt;/b&gt;" style="shape=umlFrame;whiteSpace=wrap;html=1;pointerEvents=0;width=73;height=21;fillStyle=auto;shadow=0;strokeWidth=3;swimlaneFillColor=none;" vertex="1" parent="1">
          <mxGeometry x="494.5" y="378" width="517" height="64" as="geometry" />
        </mxCell>
        <mxCell id="CkDDalKu-k9pCfHGi__i-4" value="&lt;font face=&quot;Courier New&quot; style=&quot;font-size: 13px;&quot;&gt;&lt;b style=&quot;&quot;&gt;alt&lt;/b&gt;&lt;/font&gt;" style="shape=umlFrame;whiteSpace=wrap;html=1;pointerEvents=0;width=48;height=21;fillStyle=auto;shadow=0;strokeWidth=3;swimlaneFillColor=none;" vertex="1" parent="1">
          <mxGeometry x="495.5" y="255" width="516" height="97" as="geometry" />
        </mxCell>
        <mxCell id="CkDDalKu-k9pCfHGi__i-5" value="&lt;font face=&quot;Helvetica&quot; style=&quot;font-size: 14px;&quot;&gt;&lt;b style=&quot;&quot;&gt;PCS&lt;/b&gt;&lt;/font&gt;" style="shape=umlLifeline;perimeter=lifelinePerimeter;whiteSpace=wrap;html=1;container=1;dropTarget=0;collapsible=0;recursiveResize=0;outlineConnect=0;portConstraint=eastwest;newEdgeStyle={&quot;curved&quot;:0,&quot;rounded&quot;:0};size=19;strokeWidth=3;rounded=1;shadow=0;" vertex="1" parent="1">
          <mxGeometry x="541" y="182" width="121" height="333" as="geometry" />
        </mxCell>
        <mxCell id="CkDDalKu-k9pCfHGi__i-6" value="&lt;font face=&quot;Helvetica&quot; style=&quot;font-size: 14px;&quot;&gt;&lt;b style=&quot;&quot;&gt;FCA&lt;/b&gt;&lt;/font&gt;" style="shape=umlLifeline;perimeter=lifelinePerimeter;whiteSpace=wrap;html=1;container=1;dropTarget=0;collapsible=0;recursiveResize=0;outlineConnect=0;portConstraint=eastwest;newEdgeStyle={&quot;curved&quot;:0,&quot;rounded&quot;:0};size=19;strokeWidth=3;rounded=1;shadow=0;" vertex="1" parent="1">
          <mxGeometry x="880.5" y="182" width="121" height="333" as="geometry" />
        </mxCell>
        <mxCell id="CkDDalKu-k9pCfHGi__i-7" value="&lt;font face=&quot;Helvetica&quot; style=&quot;font-size: 14px;&quot;&gt;&lt;b style=&quot;&quot;&gt;SCS&lt;/b&gt;&lt;/font&gt;" style="shape=umlLifeline;perimeter=lifelinePerimeter;whiteSpace=wrap;html=1;container=1;dropTarget=0;collapsible=0;recursiveResize=0;outlineConnect=0;portConstraint=eastwest;newEdgeStyle={&quot;curved&quot;:0,&quot;rounded&quot;:0};size=19;strokeWidth=3;rounded=1;shadow=0;" vertex="1" parent="1">
          <mxGeometry x="708.5" y="182" width="121" height="333" as="geometry" />
        </mxCell>
        <mxCell id="CkDDalKu-k9pCfHGi__i-8" value="&lt;font style=&quot;font-size: 18px;&quot;&gt;&lt;b style=&quot;&quot;&gt;\(e_0\)&lt;/b&gt;&lt;/font&gt;" style="text;html=1;align=center;verticalAlign=middle;resizable=0;points=[];autosize=1;strokeColor=none;fillColor=none;fontColor=default;" vertex="1" parent="1">
          <mxGeometry x="565" y="205.25" width="40" height="30" as="geometry" />
        </mxCell>
        <mxCell id="CkDDalKu-k9pCfHGi__i-9" value="&lt;font face=&quot;Courier New&quot; style=&quot;font-size: 15px;&quot;&gt;&lt;b style=&quot;&quot;&gt;aircraft system&lt;/b&gt;&lt;/font&gt;" style="shape=umlFrame;whiteSpace=wrap;html=1;pointerEvents=0;width=144;height=32;strokeWidth=3;shadow=1;" vertex="1" parent="1">
          <mxGeometry x="478" y="138" width="563.5" height="392" as="geometry" />
        </mxCell>
        <mxCell id="CkDDalKu-k9pCfHGi__i-10" value="" style="html=1;verticalAlign=bottom;endArrow=blockThin;curved=0;rounded=1;endFill=1;strokeColor=#666666;strokeWidth=1.5;endSize=4;fontColor=default;" edge="1" parent="1" target="CkDDalKu-k9pCfHGi__i-7">
          <mxGeometry x="-0.0002" width="80" relative="1" as="geometry">
            <mxPoint x="600.630434782609" y="221.99999999999972" as="sourcePoint" />
            <mxPoint x="940.5" y="221.99999999999972" as="targetPoint" />
            <mxPoint as="offset" />
          </mxGeometry>
        </mxCell>
        <mxCell id="CkDDalKu-k9pCfHGi__i-11" value="&lt;span style=&quot;text-align: left; white-space: pre-wrap;&quot;&gt;&lt;font face=&quot;Verdana&quot; style=&quot;font-size: 12px;&quot;&gt;InitiateTargetSearch&lt;/font&gt;&lt;/span&gt;" style="edgeLabel;html=1;align=center;verticalAlign=middle;resizable=0;points=[];fontColor=default;" vertex="1" connectable="0" parent="CkDDalKu-k9pCfHGi__i-10">
          <mxGeometry x="-0.2373" y="-1" relative="1" as="geometry">
            <mxPoint x="27" y="-3" as="offset" />
          </mxGeometry>
        </mxCell>
        <mxCell id="CkDDalKu-k9pCfHGi__i-12" value="" style="html=1;verticalAlign=bottom;endArrow=blockThin;curved=0;rounded=0;endFill=1;strokeWidth=1.5;strokeColor=light-dark(#666666,#EDEDED);startSize=6;endSize=4;fontColor=default;" edge="1" parent="1">
          <mxGeometry x="-0.0008" width="80" relative="1" as="geometry">
            <mxPoint x="602.047619047619" y="240.5000000000001" as="sourcePoint" />
            <mxPoint x="939.5" y="240.5000000000001" as="targetPoint" />
            <mxPoint as="offset" />
          </mxGeometry>
        </mxCell>
        <mxCell id="CkDDalKu-k9pCfHGi__i-13" value="&lt;span style=&quot;text-align: left; white-space: pre-wrap;&quot;&gt;&lt;font style=&quot;font-size: 12px;&quot; face=&quot;Verdana&quot;&gt;AdjustConfiguration&lt;/font&gt;&lt;/span&gt;" style="edgeLabel;html=1;align=center;verticalAlign=middle;resizable=0;points=[];fontSize=10;fontColor=default;" vertex="1" connectable="0" parent="CkDDalKu-k9pCfHGi__i-12">
          <mxGeometry x="0.0112" y="-2" relative="1" as="geometry">
            <mxPoint x="2" as="offset" />
          </mxGeometry>
        </mxCell>
        <mxCell id="CkDDalKu-k9pCfHGi__i-14" value="" style="html=1;verticalAlign=bottom;endArrow=blockThin;curved=0;rounded=0;endFill=1;strokeColor=light-dark(#666666,#EDEDED);endSize=4;strokeWidth=1.5;fontColor=default;" edge="1" parent="1">
          <mxGeometry x="0.0004" width="80" relative="1" as="geometry">
            <mxPoint x="767.5" y="410" as="sourcePoint" />
            <mxPoint x="602.4444444444445" y="410" as="targetPoint" />
            <mxPoint as="offset" />
          </mxGeometry>
        </mxCell>
        <mxCell id="CkDDalKu-k9pCfHGi__i-15" value="&lt;font face=&quot;Verdana&quot;&gt;&lt;span style=&quot;font-size: 12px;&quot;&gt;ReportStatus&lt;/span&gt;&lt;/font&gt;" style="edgeLabel;html=1;align=center;verticalAlign=middle;resizable=0;points=[];fontColor=default;labelBackgroundColor=default;" vertex="1" connectable="0" parent="CkDDalKu-k9pCfHGi__i-14">
          <mxGeometry x="0.1699" relative="1" as="geometry">
            <mxPoint x="9" as="offset" />
          </mxGeometry>
        </mxCell>
        <mxCell id="CkDDalKu-k9pCfHGi__i-16" value="" style="html=1;verticalAlign=bottom;endArrow=none;curved=0;rounded=0;strokeWidth=1.5;strokeColor=#666666;endFill=0;endSize=4;startArrow=blockThin;startFill=1;startSize=4;fontColor=default;" edge="1" parent="1">
          <mxGeometry width="80" relative="1" as="geometry">
            <mxPoint x="770.5" y="323" as="sourcePoint" />
            <mxPoint x="940.5" y="323" as="targetPoint" />
          </mxGeometry>
        </mxCell>
        <mxCell id="CkDDalKu-k9pCfHGi__i-17" value="&lt;span style=&quot;text-align: left; white-space: pre-wrap;&quot;&gt;&lt;font style=&quot;font-size: 12px;&quot;&gt;TransportData&lt;/font&gt;&lt;/span&gt;" style="edgeLabel;html=1;align=center;verticalAlign=middle;resizable=0;points=[];labelBackgroundColor=default;fontFamily=Verdana;fontColor=default;" vertex="1" connectable="0" parent="CkDDalKu-k9pCfHGi__i-16">
          <mxGeometry x="-0.1593" y="2" relative="1" as="geometry">
            <mxPoint x="12" y="1" as="offset" />
          </mxGeometry>
        </mxCell>
        <mxCell id="CkDDalKu-k9pCfHGi__i-18" value="" style="endArrow=none;dashed=1;html=1;rounded=0;exitX=-0.003;exitY=0.275;exitDx=0;exitDy=0;exitPerimeter=0;strokeWidth=1.5;strokeColor=#000000;entryX=0.996;entryY=0.332;entryDx=0;entryDy=0;entryPerimeter=0;fontColor=default;" edge="1" parent="1">
          <mxGeometry width="50" height="50" relative="1" as="geometry">
            <mxPoint x="497.4999999999999" y="284.745" as="sourcePoint" />
            <mxPoint x="1008.4360000000001" y="284.09299999999985" as="targetPoint" />
            <Array as="points">
              <mxPoint x="721.5" y="285.24" />
            </Array>
          </mxGeometry>
        </mxCell>
        <mxCell id="CkDDalKu-k9pCfHGi__i-19" value="&lt;font face=&quot;Courier New&quot; style=&quot;&quot;&gt;&lt;b style=&quot;&quot;&gt;loop(1,3)&lt;/b&gt;&lt;/font&gt;" style="shape=umlFrame;whiteSpace=wrap;html=1;pointerEvents=0;width=81;height=19;strokeWidth=3;" vertex="1" parent="1">
          <mxGeometry x="501.5" y="290.75" width="500" height="51.25" as="geometry" />
        </mxCell>
        <mxCell id="CkDDalKu-k9pCfHGi__i-20" value="" style="html=1;verticalAlign=bottom;endArrow=blockThin;curved=0;rounded=0;endSize=4;strokeWidth=1.5;endFill=1;strokeColor=light-dark(#666666,#EDEDED);fontColor=default;" edge="1" parent="1">
          <mxGeometry x="-0.0004" width="80" relative="1" as="geometry">
            <mxPoint x="601.630434782609" y="392.94000000000005" as="sourcePoint" />
            <mxPoint x="767.5" y="392.94000000000017" as="targetPoint" />
            <mxPoint as="offset" />
          </mxGeometry>
        </mxCell>
        <mxCell id="CkDDalKu-k9pCfHGi__i-21" value="&lt;span style=&quot;text-align: left; white-space: pre-wrap;&quot;&gt;&lt;font style=&quot;font-size: 12px;&quot; face=&quot;Verdana&quot;&gt;SendEmergency&lt;/font&gt;&lt;/span&gt;" style="edgeLabel;html=1;align=center;verticalAlign=middle;resizable=0;points=[];labelBackgroundColor=default;fontColor=default;" vertex="1" connectable="0" parent="CkDDalKu-k9pCfHGi__i-20">
          <mxGeometry x="-0.0234" y="-1" relative="1" as="geometry">
            <mxPoint x="-4" y="-1" as="offset" />
          </mxGeometry>
        </mxCell>
        <mxCell id="CkDDalKu-k9pCfHGi__i-22" value="" style="html=1;verticalAlign=bottom;endArrow=none;curved=0;rounded=1;endFill=0;strokeColor=#666666;strokeWidth=1.5;endSize=3;startArrow=blockThin;startFill=1;startSize=4;fontColor=default;" edge="1" parent="1">
          <mxGeometry x="-0.0002" width="80" relative="1" as="geometry">
            <mxPoint x="601.000434782609" y="272.5699999999997" as="sourcePoint" />
            <mxPoint x="939.8699999999998" y="272.5699999999997" as="targetPoint" />
            <mxPoint as="offset" />
          </mxGeometry>
        </mxCell>
        <mxCell id="CkDDalKu-k9pCfHGi__i-23" value="&lt;div style=&quot;text-align: left;&quot;&gt;&lt;span style=&quot;font-size: 12px; white-space: pre-wrap;&quot;&gt;&lt;font face=&quot;Verdana&quot;&gt;SendRequest&lt;/font&gt;&lt;/span&gt;&lt;/div&gt;" style="edgeLabel;html=1;align=center;verticalAlign=middle;resizable=0;points=[];labelBackgroundColor=default;fontColor=default;" vertex="1" connectable="0" parent="CkDDalKu-k9pCfHGi__i-22">
          <mxGeometry x="-0.2373" y="-1" relative="1" as="geometry">
            <mxPoint x="27" y="-3" as="offset" />
          </mxGeometry>
        </mxCell>
        <mxCell id="CkDDalKu-k9pCfHGi__i-24" value="" style="html=1;verticalAlign=bottom;endArrow=none;curved=0;rounded=0;endFill=0;strokeWidth=1.5;strokeColor=light-dark(#666666,#EDEDED);startSize=4;endSize=3;startArrow=blockThin;startFill=1;fontColor=default;" edge="1" parent="1">
          <mxGeometry x="-0.0008" width="80" relative="1" as="geometry">
            <mxPoint x="940.5" y="305" as="sourcePoint" />
            <mxPoint x="770.4957142857143" y="305" as="targetPoint" />
            <mxPoint as="offset" />
          </mxGeometry>
        </mxCell>
        <mxCell id="CkDDalKu-k9pCfHGi__i-25" value="&lt;span style=&quot;text-align: left; white-space: pre-wrap;&quot;&gt;&lt;font style=&quot;font-size: 12px;&quot; face=&quot;Verdana&quot;&gt;ScanForTargets&lt;/font&gt;&lt;/span&gt;" style="edgeLabel;html=1;align=center;verticalAlign=middle;resizable=0;points=[];fontSize=10;labelBackgroundColor=default;fontColor=default;" vertex="1" connectable="0" parent="CkDDalKu-k9pCfHGi__i-24">
          <mxGeometry x="0.0112" y="-2" relative="1" as="geometry">
            <mxPoint x="3" y="2" as="offset" />
          </mxGeometry>
        </mxCell>
        <mxCell id="CkDDalKu-k9pCfHGi__i-26" value="" style="html=1;verticalAlign=bottom;endArrow=none;curved=0;rounded=0;strokeWidth=1.5;strokeColor=light-dark(#666666,#EDEDED);endFill=0;endSize=4;startArrow=blockThin;startFill=1;startSize=4;fontColor=default;" edge="1" parent="1">
          <mxGeometry width="80" relative="1" as="geometry">
            <mxPoint x="601.630434782609" y="364.71999999999986" as="sourcePoint" />
            <mxPoint x="767.5" y="364.7199999999999" as="targetPoint" />
          </mxGeometry>
        </mxCell>
        <mxCell id="CkDDalKu-k9pCfHGi__i-27" value="&lt;div style=&quot;text-align: left;&quot;&gt;&lt;span style=&quot;font-size: 12px; white-space: pre-wrap;&quot;&gt;TransmitReport&lt;/span&gt;&lt;/div&gt;" style="edgeLabel;html=1;align=center;verticalAlign=middle;resizable=0;points=[];labelBackgroundColor=default;fontFamily=Verdana;fontColor=default;" vertex="1" connectable="0" parent="CkDDalKu-k9pCfHGi__i-26">
          <mxGeometry x="-0.1593" y="2" relative="1" as="geometry">
            <mxPoint x="12" y="1" as="offset" />
          </mxGeometry>
        </mxCell>
        <mxCell id="CkDDalKu-k9pCfHGi__i-28" value="" style="html=1;verticalAlign=bottom;endArrow=blockThin;curved=0;rounded=0;endSize=4;strokeWidth=1.5;endFill=1;strokeColor=light-dark(#666666,#EDEDED);fontColor=default;" edge="1" parent="1">
          <mxGeometry x="-0.0004" width="80" relative="1" as="geometry">
            <mxPoint x="602.4444444444445" y="424.5000000000001" as="sourcePoint" />
            <mxPoint x="767.5" y="424.5000000000001" as="targetPoint" />
            <mxPoint as="offset" />
          </mxGeometry>
        </mxCell>
        <mxCell id="CkDDalKu-k9pCfHGi__i-29" value="&lt;span style=&quot;text-align: left; white-space: pre-wrap;&quot;&gt;&lt;font style=&quot;font-size: 12px;&quot; face=&quot;Verdana&quot;&gt;SwitchMode&lt;/font&gt;&lt;/span&gt;" style="edgeLabel;html=1;align=center;verticalAlign=middle;resizable=0;points=[];labelBackgroundColor=default;fontColor=default;" vertex="1" connectable="0" parent="CkDDalKu-k9pCfHGi__i-28">
          <mxGeometry x="-0.0234" y="-1" relative="1" as="geometry">
            <mxPoint x="-3" y="-1" as="offset" />
          </mxGeometry>
        </mxCell>
        <mxCell id="CkDDalKu-k9pCfHGi__i-30" value="" style="html=1;verticalAlign=bottom;endArrow=none;curved=0;rounded=0;endFill=0;strokeColor=light-dark(#666666,#EDEDED);endSize=4;strokeWidth=1.5;startSize=4;startArrow=blockThin;startFill=1;fontColor=default;" edge="1" parent="1">
          <mxGeometry x="0.0004" width="80" relative="1" as="geometry">
            <mxPoint x="940.5" y="464.77" as="sourcePoint" />
            <mxPoint x="770.5" y="464.77" as="targetPoint" />
            <mxPoint as="offset" />
          </mxGeometry>
        </mxCell>
        <mxCell id="CkDDalKu-k9pCfHGi__i-31" value="&lt;font style=&quot;font-size: 12px;&quot; face=&quot;Verdana&quot;&gt;SwitchMode&lt;/font&gt;" style="edgeLabel;html=1;align=center;verticalAlign=middle;resizable=0;points=[];fontColor=default;labelBackgroundColor=default;" vertex="1" connectable="0" parent="CkDDalKu-k9pCfHGi__i-30">
          <mxGeometry x="0.1699" relative="1" as="geometry">
            <mxPoint x="15" as="offset" />
          </mxGeometry>
        </mxCell>
        <mxCell id="CkDDalKu-k9pCfHGi__i-32" value="" style="html=1;verticalAlign=bottom;endArrow=none;curved=0;rounded=0;endSize=4;strokeWidth=1.5;endFill=0;strokeColor=light-dark(#666666,#EDEDED);startArrow=blockThin;startFill=1;startSize=4;fontColor=default;" edge="1" parent="1">
          <mxGeometry x="-0.0004" width="80" relative="1" as="geometry">
            <mxPoint x="772.7857142857143" y="480.7700000000002" as="sourcePoint" />
            <mxPoint x="940.4999999999998" y="480.7700000000002" as="targetPoint" />
            <mxPoint as="offset" />
          </mxGeometry>
        </mxCell>
        <mxCell id="CkDDalKu-k9pCfHGi__i-33" value="&lt;div style=&quot;text-align: left;&quot;&gt;&lt;span style=&quot;white-space: pre-wrap;&quot;&gt;&lt;font style=&quot;font-size: 12px;&quot; face=&quot;Verdana&quot;&gt;ReportConfiguration&lt;/font&gt;&lt;/span&gt;&lt;/div&gt;" style="edgeLabel;html=1;align=center;verticalAlign=middle;resizable=0;points=[];labelBackgroundColor=default;fontColor=default;" vertex="1" connectable="0" parent="CkDDalKu-k9pCfHGi__i-32">
          <mxGeometry x="-0.0234" y="-1" relative="1" as="geometry">
            <mxPoint x="1" y="-1" as="offset" />
          </mxGeometry>
        </mxCell>
        <mxCell id="CkDDalKu-k9pCfHGi__i-34" value="&lt;span style=&quot;font-style: normal; font-variant-ligatures: normal; font-variant-caps: normal; letter-spacing: normal; orphans: 2; text-align: left; text-indent: 0px; text-transform: none; widows: 2; word-spacing: 0px; -webkit-text-stroke-width: 0px; white-space: nowrap; text-decoration-thickness: initial; text-decoration-style: initial; text-decoration-color: initial; float: none; display: inline !important;&quot;&gt;&lt;font face=&quot;Courier New&quot; style=&quot;font-size: 20px;&quot;&gt;&lt;b style=&quot;&quot;&gt;Property&lt;/b&gt;&lt;/font&gt;&lt;/span&gt;" style="text;whiteSpace=wrap;html=1;shadow=1;rounded=1;" vertex="1" parent="1">
          <mxGeometry x="1094.5" y="316" width="146.8" height="25.57" as="geometry" />
        </mxCell>
        <mxCell id="CkDDalKu-k9pCfHGi__i-35" value="&lt;font style=&quot;font-size: 18px;&quot;&gt;\(0 &amp;lt; e_{10} - e_3 &amp;lt; 50\)&lt;/font&gt;&lt;div&gt;&lt;span style=&quot;font-size: 18px;&quot;&gt;\(0 &amp;lt; e_3 - e_0\)&lt;/span&gt;&lt;/div&gt;" style="text;html=1;align=left;verticalAlign=middle;whiteSpace=wrap;rounded=0;" vertex="1" parent="1">
          <mxGeometry x="1076" y="354" width="177.5" height="29" as="geometry" />
        </mxCell>
        <mxCell id="CkDDalKu-k9pCfHGi__i-36" value="&lt;font style=&quot;font-size: 18px;&quot;&gt;&lt;b style=&quot;&quot;&gt;\(e_1\)&lt;/b&gt;&lt;/font&gt;" style="text;html=1;align=center;verticalAlign=middle;resizable=0;points=[];autosize=1;strokeColor=none;fillColor=none;fontColor=default;" vertex="1" parent="1">
          <mxGeometry x="765" y="195.25" width="70" height="34" as="geometry" />
        </mxCell>
        <mxCell id="CkDDalKu-k9pCfHGi__i-37" value="&lt;font style=&quot;font-size: 18px;&quot;&gt;&lt;b style=&quot;&quot;&gt;\(e_2\)&lt;/b&gt;&lt;/font&gt;" style="text;html=1;align=center;verticalAlign=middle;resizable=0;points=[];autosize=1;strokeColor=none;fillColor=none;fontColor=default;" vertex="1" parent="1">
          <mxGeometry x="550" y="221" width="70" height="34" as="geometry" />
        </mxCell>
        <mxCell id="CkDDalKu-k9pCfHGi__i-38" value="&lt;font style=&quot;font-size: 18px;&quot;&gt;&lt;b style=&quot;&quot;&gt;\(e_3\)&lt;/b&gt;&lt;/font&gt;" style="text;html=1;align=center;verticalAlign=middle;resizable=0;points=[];autosize=1;strokeColor=none;fillColor=none;fontColor=default;" vertex="1" parent="1">
          <mxGeometry x="936.5" y="215" width="70" height="34" as="geometry" />
        </mxCell>
        <mxCell id="CkDDalKu-k9pCfHGi__i-39" value="&lt;font style=&quot;font-size: 18px;&quot;&gt;&lt;b style=&quot;&quot;&gt;\(e_5\)&lt;/b&gt;&lt;/font&gt;" style="text;html=1;align=center;verticalAlign=middle;resizable=0;points=[];autosize=1;strokeColor=none;fillColor=none;fontColor=default;" vertex="1" parent="1">
          <mxGeometry x="550" y="245.75" width="70" height="34" as="geometry" />
        </mxCell>
        <mxCell id="CkDDalKu-k9pCfHGi__i-40" value="&lt;font style=&quot;font-size: 18px;&quot;&gt;&lt;b style=&quot;&quot;&gt;\(e_4\)&lt;/b&gt;&lt;/font&gt;" style="text;html=1;align=center;verticalAlign=middle;resizable=0;points=[];autosize=1;strokeColor=none;fillColor=none;fontColor=default;" vertex="1" parent="1">
          <mxGeometry x="937" y="245.75" width="70" height="34" as="geometry" />
        </mxCell>
        <mxCell id="CkDDalKu-k9pCfHGi__i-41" value="&lt;font style=&quot;font-size: 18px;&quot;&gt;&lt;b style=&quot;&quot;&gt;\(e_7\)&lt;/b&gt;&lt;/font&gt;" style="text;html=1;align=center;verticalAlign=middle;resizable=0;points=[];autosize=1;strokeColor=none;fillColor=none;fontColor=default;" vertex="1" parent="1">
          <mxGeometry x="937" y="279" width="70" height="34" as="geometry" />
        </mxCell>
        <mxCell id="CkDDalKu-k9pCfHGi__i-42" value="&lt;font style=&quot;font-size: 18px;&quot;&gt;&lt;b style=&quot;&quot;&gt;\(e_8\)&lt;/b&gt;&lt;/font&gt;" style="text;html=1;align=center;verticalAlign=middle;resizable=0;points=[];autosize=1;strokeColor=none;fillColor=none;fontColor=default;" vertex="1" parent="1">
          <mxGeometry x="937" y="298" width="70" height="34" as="geometry" />
        </mxCell>
        <mxCell id="CkDDalKu-k9pCfHGi__i-43" value="&lt;font style=&quot;font-size: 18px;&quot;&gt;&lt;b style=&quot;&quot;&gt;\(e_6\)&lt;/b&gt;&lt;/font&gt;" style="text;html=1;align=center;verticalAlign=middle;resizable=0;points=[];autosize=1;strokeColor=none;fillColor=none;fontColor=default;" vertex="1" parent="1">
          <mxGeometry x="718.5" y="279" width="70" height="34" as="geometry" />
        </mxCell>
        <mxCell id="CkDDalKu-k9pCfHGi__i-44" value="&lt;font style=&quot;font-size: 18px;&quot;&gt;&lt;b style=&quot;&quot;&gt;\(e_9\)&lt;/b&gt;&lt;/font&gt;" style="text;html=1;align=center;verticalAlign=middle;resizable=0;points=[];autosize=1;strokeColor=none;fillColor=none;fontColor=default;" vertex="1" parent="1">
          <mxGeometry x="718" y="302" width="70" height="34" as="geometry" />
        </mxCell>
        <mxCell id="CkDDalKu-k9pCfHGi__i-45" value="&lt;font style=&quot;font-size: 18px;&quot;&gt;&lt;b style=&quot;&quot;&gt;\(e_{10}\)&lt;/b&gt;&lt;/font&gt;" style="text;html=1;align=center;verticalAlign=middle;resizable=0;points=[];autosize=1;strokeColor=none;fillColor=none;fontColor=default;" vertex="1" parent="1">
          <mxGeometry x="756" y="341" width="94" height="34" as="geometry" />
        </mxCell>
        <mxCell id="CkDDalKu-k9pCfHGi__i-46" value="&lt;font style=&quot;font-size: 18px;&quot;&gt;&lt;b style=&quot;&quot;&gt;\(e_{11}\)&lt;/b&gt;&lt;/font&gt;" style="text;html=1;align=center;verticalAlign=middle;resizable=0;points=[];autosize=1;strokeColor=none;fillColor=none;fontColor=default;" vertex="1" parent="1">
          <mxGeometry x="538.5" y="342.5" width="93" height="34" as="geometry" />
        </mxCell>
        <mxCell id="CkDDalKu-k9pCfHGi__i-47" value="&lt;font style=&quot;font-size: 18px;&quot;&gt;&lt;b style=&quot;&quot;&gt;\(e_{12}\)&lt;/b&gt;&lt;/font&gt;" style="text;html=1;align=center;verticalAlign=middle;resizable=0;points=[];autosize=1;strokeColor=none;fillColor=none;fontColor=default;" vertex="1" parent="1">
          <mxGeometry x="537" y="366.5" width="94" height="34" as="geometry" />
        </mxCell>
        <mxCell id="CkDDalKu-k9pCfHGi__i-48" value="&lt;font style=&quot;font-size: 18px;&quot;&gt;&lt;b style=&quot;&quot;&gt;\(e_{15}\)&lt;/b&gt;&lt;/font&gt;" style="text;html=1;align=center;verticalAlign=middle;resizable=0;points=[];autosize=1;strokeColor=none;fillColor=none;fontColor=default;" vertex="1" parent="1">
          <mxGeometry x="537" y="384" width="94" height="34" as="geometry" />
        </mxCell>
        <mxCell id="CkDDalKu-k9pCfHGi__i-49" value="&lt;font style=&quot;font-size: 18px;&quot;&gt;&lt;b style=&quot;&quot;&gt;\(e_{16}\)&lt;/b&gt;&lt;/font&gt;" style="text;html=1;align=center;verticalAlign=middle;resizable=0;points=[];autosize=1;strokeColor=none;fillColor=none;fontColor=default;" vertex="1" parent="1">
          <mxGeometry x="536" y="404" width="94" height="34" as="geometry" />
        </mxCell>
        <mxCell id="CkDDalKu-k9pCfHGi__i-50" value="&lt;font style=&quot;font-size: 18px;&quot;&gt;&lt;b style=&quot;&quot;&gt;\(e_{13}\)&lt;/b&gt;&lt;/font&gt;" style="text;html=1;align=center;verticalAlign=middle;resizable=0;points=[];autosize=1;strokeColor=none;fillColor=none;fontColor=default;" vertex="1" parent="1">
          <mxGeometry x="757" y="366.5" width="94" height="34" as="geometry" />
        </mxCell>
        <mxCell id="CkDDalKu-k9pCfHGi__i-51" value="&lt;font style=&quot;font-size: 18px;&quot;&gt;&lt;b style=&quot;&quot;&gt;\(e_{14}\)&lt;/b&gt;&lt;/font&gt;" style="text;html=1;align=center;verticalAlign=middle;resizable=0;points=[];autosize=1;strokeColor=none;fillColor=none;fontColor=default;" vertex="1" parent="1">
          <mxGeometry x="755.5" y="386" width="94" height="34" as="geometry" />
        </mxCell>
        <mxCell id="CkDDalKu-k9pCfHGi__i-52" value="&lt;font style=&quot;font-size: 18px;&quot;&gt;&lt;b style=&quot;&quot;&gt;\(e_{17}\)&lt;/b&gt;&lt;/font&gt;" style="text;html=1;align=center;verticalAlign=middle;resizable=0;points=[];autosize=1;strokeColor=none;fillColor=none;fontColor=default;" vertex="1" parent="1">
          <mxGeometry x="757" y="404" width="94" height="34" as="geometry" />
        </mxCell>
        <mxCell id="CkDDalKu-k9pCfHGi__i-53" value="&lt;font style=&quot;font-size: 18px;&quot;&gt;&lt;b style=&quot;&quot;&gt;\(e_{18}\)&lt;/b&gt;&lt;/font&gt;" style="text;html=1;align=center;verticalAlign=middle;resizable=0;points=[];autosize=1;strokeColor=none;fillColor=none;fontColor=default;" vertex="1" parent="1">
          <mxGeometry x="709" y="443" width="94" height="34" as="geometry" />
        </mxCell>
        <mxCell id="CkDDalKu-k9pCfHGi__i-54" value="&lt;font style=&quot;font-size: 18px;&quot;&gt;&lt;b style=&quot;&quot;&gt;\(e_{21}\)&lt;/b&gt;&lt;/font&gt;" style="text;html=1;align=center;verticalAlign=middle;resizable=0;points=[];autosize=1;strokeColor=none;fillColor=none;fontColor=default;" vertex="1" parent="1">
          <mxGeometry x="709" y="461" width="94" height="34" as="geometry" />
        </mxCell>
        <mxCell id="CkDDalKu-k9pCfHGi__i-55" value="&lt;font style=&quot;font-size: 18px;&quot;&gt;&lt;b style=&quot;&quot;&gt;\(e_{20}\)&lt;/b&gt;&lt;/font&gt;" style="text;html=1;align=center;verticalAlign=middle;resizable=0;points=[];autosize=1;strokeColor=none;fillColor=none;fontColor=default;" vertex="1" parent="1">
          <mxGeometry x="927.5" y="460" width="94" height="34" as="geometry" />
        </mxCell>
        <mxCell id="CkDDalKu-k9pCfHGi__i-56" value="&lt;font style=&quot;font-size: 18px;&quot;&gt;&lt;b style=&quot;&quot;&gt;\(e_{19}\)&lt;/b&gt;&lt;/font&gt;" style="text;html=1;align=center;verticalAlign=middle;resizable=0;points=[];autosize=1;strokeColor=none;fillColor=none;fontColor=default;" vertex="1" parent="1">
          <mxGeometry x="927.5" y="445" width="94" height="34" as="geometry" />
        </mxCell>
        <mxCell id="CkDDalKu-k9pCfHGi__i-57" value="" style="group;strokeWidth=4;dashed=1;shadow=1;rounded=0;fontSize=14;" vertex="1" connectable="0" parent="1">
          <mxGeometry x="1070" y="130" width="181" height="172" as="geometry" />
        </mxCell>
        <mxCell id="CkDDalKu-k9pCfHGi__i-58" value="" style="shape=note;whiteSpace=wrap;html=1;backgroundOutline=1;darkOpacity=0.05;strokeWidth=3;shadow=1;fontSize=14;size=23;" vertex="1" parent="CkDDalKu-k9pCfHGi__i-57">
          <mxGeometry y="10" width="181" height="151" as="geometry" />
        </mxCell>
        <mxCell id="CkDDalKu-k9pCfHGi__i-59" value="&lt;div style=&quot;line-height: 100%;&quot;&gt;&lt;font face=&quot;Helvetica&quot; style=&quot;font-size: 18px; line-height: 100%;&quot;&gt;&lt;span style=&quot;background-color: transparent; text-wrap-mode: nowrap;&quot;&gt;\(0 &amp;lt; e_1 - e_0 &amp;lt; 2\)&lt;/span&gt;&lt;/font&gt;&lt;/div&gt;&lt;div style=&quot;line-height: 100%;&quot;&gt;&lt;font face=&quot;Helvetica&quot; style=&quot;font-size: 18px; line-height: 100%;&quot;&gt;&lt;span style=&quot;background-color: transparent;&quot;&gt;\(1 &amp;lt; e_4 - e_2 &amp;lt; 10\)&lt;/span&gt;&lt;/font&gt;&lt;/div&gt;&lt;div style=&quot;line-height: 100%;&quot;&gt;&lt;font face=&quot;Helvetica&quot; style=&quot;font-size: 18px; line-height: 100%;&quot;&gt;&lt;span style=&quot;text-wrap-mode: nowrap;&quot;&gt;\(2 &amp;lt; e_5 - e_4 &amp;lt; 6\)&lt;/span&gt;&lt;span style=&quot;background-color: transparent;&quot;&gt;&lt;/span&gt;&lt;/font&gt;&lt;/div&gt;&lt;div style=&quot;line-height: 100%;&quot;&gt;&lt;font face=&quot;Helvetica&quot; style=&quot;font-size: 18px; line-height: 100%;&quot;&gt;&lt;span style=&quot;text-wrap-mode: nowrap;&quot;&gt;\(0 &amp;lt; e_9 - e_6 &amp;lt; 8\)&lt;/span&gt;&lt;/font&gt;&lt;/div&gt;&lt;div style=&quot;line-height: 100%;&quot;&gt;&lt;font face=&quot;Helvetica&quot; style=&quot;font-size: 18px; line-height: 100%;&quot;&gt;\(2 &amp;lt; e_{16} - e_{14} &amp;lt; 5\)&lt;/font&gt;&lt;div&gt;&lt;font face=&quot;Helvetica&quot; style=&quot;font-size: 18px; line-height: 100%;&quot;&gt;\(5 &amp;lt; e_{12} - e_{17} &amp;lt; 12\)&lt;/font&gt;&lt;/div&gt;&lt;/div&gt;" style="text;html=1;align=left;verticalAlign=middle;whiteSpace=wrap;rounded=0;" vertex="1" parent="CkDDalKu-k9pCfHGi__i-57">
          <mxGeometry x="3.569999999999993" y="17" width="166.87" height="149" as="geometry" />
        </mxCell>
        <mxCell id="CkDDalKu-k9pCfHGi__i-60" value="&lt;span style=&quot;font-style: normal; font-variant-ligatures: normal; font-variant-caps: normal; letter-spacing: normal; orphans: 2; text-align: left; text-indent: 0px; text-transform: none; widows: 2; word-spacing: 0px; -webkit-text-stroke-width: 0px; white-space: nowrap; text-decoration-thickness: initial; text-decoration-style: initial; text-decoration-color: initial; float: none; display: inline !important;&quot;&gt;&lt;font face=&quot;Courier New&quot; style=&quot;font-size: 20px;&quot;&gt;&lt;b style=&quot;&quot;&gt;Constraint&lt;/b&gt;&lt;/font&gt;&lt;/span&gt;" style="text;whiteSpace=wrap;html=1;shadow=1;rounded=1;" vertex="1" parent="CkDDalKu-k9pCfHGi__i-57">
          <mxGeometry x="15" y="3" width="147" height="26" as="geometry" />
        </mxCell>
        <mxCell id="CkDDalKu-k9pCfHGi__i-64" value="打包" style="edgeStyle=orthogonalEdgeStyle;rounded=0;orthogonalLoop=1;jettySize=auto;html=1;endArrow=blockThin;endFill=1;exitX=0.52;exitY=0.854;exitDx=0;exitDy=0;exitPerimeter=0;entryX=0;entryY=0.5;entryDx=0;entryDy=0;" edge="1" parent="1" source="CkDDalKu-k9pCfHGi__i-86" target="CkDDalKu-k9pCfHGi__i-69">
          <mxGeometry relative="1" as="geometry">
            <mxPoint x="494.5" y="705" as="sourcePoint" />
            <mxPoint x="581" y="680" as="targetPoint" />
            <Array as="points">
              <mxPoint x="510" y="663" />
              <mxPoint x="510" y="705" />
            </Array>
          </mxGeometry>
        </mxCell>
        <mxCell id="CkDDalKu-k9pCfHGi__i-71" value="" style="edgeStyle=orthogonalEdgeStyle;rounded=0;orthogonalLoop=1;jettySize=auto;html=1;entryX=0.006;entryY=0.423;entryDx=0;entryDy=0;entryPerimeter=0;endArrow=blockThin;endFill=1;" edge="1" parent="1" source="CkDDalKu-k9pCfHGi__i-69" target="CkDDalKu-k9pCfHGi__i-70">
          <mxGeometry relative="1" as="geometry" />
        </mxCell>
        <mxCell id="CkDDalKu-k9pCfHGi__i-72" value="中断" style="edgeLabel;html=1;align=center;verticalAlign=middle;resizable=0;points=[];" vertex="1" connectable="0" parent="CkDDalKu-k9pCfHGi__i-71">
          <mxGeometry x="-0.128" y="2" relative="1" as="geometry">
            <mxPoint as="offset" />
          </mxGeometry>
        </mxCell>
        <mxCell id="CkDDalKu-k9pCfHGi__i-69" value="parcel graphs" style="shape=document;whiteSpace=wrap;html=1;boundedLbl=1;" vertex="1" parent="1">
          <mxGeometry x="550" y="680" width="62" height="50" as="geometry" />
        </mxCell>
        <mxCell id="CkDDalKu-k9pCfHGi__i-77" value="" style="edgeStyle=orthogonalEdgeStyle;rounded=0;orthogonalLoop=1;jettySize=auto;html=1;endArrow=blockThin;endFill=1;" edge="1" parent="1">
          <mxGeometry relative="1" as="geometry">
            <mxPoint x="724" y="705" as="sourcePoint" />
            <mxPoint x="750" y="705" as="targetPoint" />
          </mxGeometry>
        </mxCell>
        <mxCell id="CkDDalKu-k9pCfHGi__i-70" value="interrupted&lt;div&gt;parcel graph&lt;/div&gt;" style="shape=document;whiteSpace=wrap;html=1;boundedLbl=1;" vertex="1" parent="1">
          <mxGeometry x="662" y="680" width="62" height="60" as="geometry" />
        </mxCell>
        <mxCell id="CkDDalKu-k9pCfHGi__i-79" value="" style="edgeStyle=orthogonalEdgeStyle;rounded=0;orthogonalLoop=1;jettySize=auto;html=1;endArrow=blockThin;endFill=1;" edge="1" parent="1" source="CkDDalKu-k9pCfHGi__i-76" target="CkDDalKu-k9pCfHGi__i-78">
          <mxGeometry relative="1" as="geometry" />
        </mxCell>
        <mxCell id="CkDDalKu-k9pCfHGi__i-76" value="SMT编码" style="whiteSpace=wrap;html=1;rounded=1;" vertex="1" parent="1">
          <mxGeometry x="752" y="685" width="75" height="40" as="geometry" />
        </mxCell>
        <mxCell id="CkDDalKu-k9pCfHGi__i-78" value="SMT求解" style="whiteSpace=wrap;html=1;rounded=1;" vertex="1" parent="1">
          <mxGeometry x="852.5" y="685" width="75" height="40" as="geometry" />
        </mxCell>
        <mxCell id="CkDDalKu-k9pCfHGi__i-81" style="edgeStyle=orthogonalEdgeStyle;rounded=0;orthogonalLoop=1;jettySize=auto;html=1;endArrow=blockThin;endFill=0;" edge="1" parent="1" source="CkDDalKu-k9pCfHGi__i-80">
          <mxGeometry relative="1" as="geometry">
            <mxPoint x="837.5" y="705" as="targetPoint" />
          </mxGeometry>
        </mxCell>
        <mxCell id="CkDDalKu-k9pCfHGi__i-80" value="加速策略" style="whiteSpace=wrap;html=1;rounded=1;" vertex="1" parent="1">
          <mxGeometry x="800" y="756" width="75" height="40" as="geometry" />
        </mxCell>
        <mxCell id="CkDDalKu-k9pCfHGi__i-82" style="edgeStyle=orthogonalEdgeStyle;rounded=0;orthogonalLoop=1;jettySize=auto;html=1;endArrow=blockThin;endFill=0;" edge="1" parent="1" source="CkDDalKu-k9pCfHGi__i-83">
          <mxGeometry relative="1" as="geometry">
            <mxPoint x="581" y="725" as="targetPoint" />
          </mxGeometry>
        </mxCell>
        <mxCell id="CkDDalKu-k9pCfHGi__i-89" value="扩展" style="edgeLabel;html=1;align=center;verticalAlign=middle;resizable=0;points=[];" vertex="1" connectable="0" parent="CkDDalKu-k9pCfHGi__i-82">
          <mxGeometry x="-0.135" y="2" relative="1" as="geometry">
            <mxPoint x="2" as="offset" />
          </mxGeometry>
        </mxCell>
        <mxCell id="CkDDalKu-k9pCfHGi__i-83" value="其他机制" style="whiteSpace=wrap;html=1;rounded=1;" vertex="1" parent="1">
          <mxGeometry x="543.5" y="756" width="75" height="40" as="geometry" />
        </mxCell>
        <mxCell id="CkDDalKu-k9pCfHGi__i-84" style="edgeStyle=orthogonalEdgeStyle;rounded=0;orthogonalLoop=1;jettySize=auto;html=1;entryX=0;entryY=0.5;entryDx=0;entryDy=0;exitX=0.969;exitY=0.416;exitDx=0;exitDy=0;exitPerimeter=0;endArrow=blockThin;endFill=1;" edge="1" parent="1" source="CkDDalKu-k9pCfHGi__i-85" target="CkDDalKu-k9pCfHGi__i-86">
          <mxGeometry relative="1" as="geometry" />
        </mxCell>
        <mxCell id="CkDDalKu-k9pCfHGi__i-85" value="中断驱动系统" style="shape=document;whiteSpace=wrap;html=1;boundedLbl=1;" vertex="1" parent="1">
          <mxGeometry x="392.5" y="620" width="60" height="60" as="geometry" />
        </mxCell>
        <mxCell id="CkDDalKu-k9pCfHGi__i-86" value="ISD" style="shape=document;whiteSpace=wrap;html=1;boundedLbl=1;" vertex="1" parent="1">
          <mxGeometry x="479.5" y="620" width="62" height="50" as="geometry" />
        </mxCell>
        <mxCell id="CkDDalKu-k9pCfHGi__i-87" value="时序属性" style="shape=document;whiteSpace=wrap;html=1;boundedLbl=1;" vertex="1" parent="1">
          <mxGeometry x="568" y="620" width="62" height="50" as="geometry" />
        </mxCell>
        <mxCell id="CkDDalKu-k9pCfHGi__i-88" style="edgeStyle=orthogonalEdgeStyle;rounded=0;orthogonalLoop=1;jettySize=auto;html=1;entryX=1;entryY=0.5;entryDx=0;entryDy=0;endArrow=blockThin;endFill=1;" edge="1" parent="1" source="CkDDalKu-k9pCfHGi__i-87" target="CkDDalKu-k9pCfHGi__i-86">
          <mxGeometry relative="1" as="geometry" />
        </mxCell>
        <mxCell id="CkDDalKu-k9pCfHGi__i-90" value="" style="rounded=1;whiteSpace=wrap;html=1;strokeWidth=4;dashed=1;strokeColor=#EA6B66;dashPattern=1 2;fontSize=14;" vertex="1" parent="1">
          <mxGeometry x="663" y="1046" width="295" height="49" as="geometry" />
        </mxCell>
        <mxCell id="CkDDalKu-k9pCfHGi__i-91" value="&lt;font face=&quot;Courier New&quot; style=&quot;color: rgb(0, 102, 102);&quot;&gt;&lt;b&gt;alt&lt;/b&gt;&lt;/font&gt;" style="shape=umlFrame;whiteSpace=wrap;html=1;pointerEvents=0;width=48;height=21;fillColor=#b0e3e6;strokeColor=#0e8088;fillStyle=auto;shadow=0;strokeWidth=4;gradientColor=none;swimlaneFillColor=light-dark(#F4FDFF,#002813);fontSize=14;" vertex="1" parent="1">
          <mxGeometry x="655" y="1106" width="308" height="73" as="geometry" />
        </mxCell>
        <mxCell id="CkDDalKu-k9pCfHGi__i-92" value="&lt;font face=&quot;Helvetica&quot; style=&quot;color: rgb(0, 102, 0);&quot;&gt;&lt;b&gt;PCS&lt;/b&gt;&lt;/font&gt;" style="shape=umlLifeline;perimeter=lifelinePerimeter;whiteSpace=wrap;html=1;container=1;dropTarget=0;collapsible=0;recursiveResize=0;outlineConnect=0;portConstraint=eastwest;newEdgeStyle={&quot;curved&quot;:0,&quot;rounded&quot;:0};size=19;fillColor=#d5e8d4;strokeColor=#82b366;strokeWidth=4;rounded=1;shadow=0;fontSize=14;" vertex="1" parent="1">
          <mxGeometry x="667" y="1018" width="80" height="201" as="geometry" />
        </mxCell>
        <mxCell id="CkDDalKu-k9pCfHGi__i-93" value="&lt;font face=&quot;Helvetica&quot; style=&quot;color: rgb(0, 102, 0);&quot;&gt;&lt;b&gt;FCA&lt;/b&gt;&lt;/font&gt;" style="shape=umlLifeline;perimeter=lifelinePerimeter;whiteSpace=wrap;html=1;container=1;dropTarget=0;collapsible=0;recursiveResize=0;outlineConnect=0;portConstraint=eastwest;newEdgeStyle={&quot;curved&quot;:0,&quot;rounded&quot;:0};size=19;fillColor=#d5e8d4;strokeColor=#82b366;strokeWidth=4;rounded=1;shadow=0;fontSize=14;" vertex="1" parent="1">
          <mxGeometry x="882" y="1018" width="80" height="205" as="geometry" />
        </mxCell>
        <mxCell id="CkDDalKu-k9pCfHGi__i-94" value="&lt;font face=&quot;Helvetica&quot; style=&quot;color: rgb(0, 102, 0);&quot;&gt;&lt;b&gt;SCS&lt;/b&gt;&lt;/font&gt;" style="shape=umlLifeline;perimeter=lifelinePerimeter;whiteSpace=wrap;html=1;container=1;dropTarget=0;collapsible=0;recursiveResize=0;outlineConnect=0;portConstraint=eastwest;newEdgeStyle={&quot;curved&quot;:0,&quot;rounded&quot;:0};size=19;fillColor=#d5e8d4;strokeColor=#82b366;strokeWidth=4;rounded=1;shadow=0;fontSize=14;" vertex="1" parent="1">
          <mxGeometry x="773.5" y="1018" width="80" height="205" as="geometry" />
        </mxCell>
        <mxCell id="CkDDalKu-k9pCfHGi__i-95" value="&lt;font face=&quot;Courier New&quot; style=&quot;color: rgb(0, 76, 153); font-size: 16px;&quot;&gt;&lt;b style=&quot;&quot;&gt;aircraft system&lt;/b&gt;&lt;/font&gt;" style="shape=umlFrame;whiteSpace=wrap;html=1;pointerEvents=0;width=171;height=29;fillColor=#dae8fc;strokeColor=#6c8ebf;strokeWidth=4;shadow=1;fontSize=14;" vertex="1" parent="1">
          <mxGeometry x="646" y="979" width="345" height="243" as="geometry" />
        </mxCell>
        <mxCell id="CkDDalKu-k9pCfHGi__i-96" value="" style="html=1;verticalAlign=bottom;endArrow=blockThin;curved=0;rounded=1;endFill=1;strokeColor=#666666;strokeWidth=3;endSize=4;fontSize=14;" edge="1" parent="1">
          <mxGeometry x="-0.0002" width="80" relative="1" as="geometry">
            <mxPoint x="708.0409090909093" y="1062" as="sourcePoint" />
            <mxPoint x="812" y="1062" as="targetPoint" />
            <mxPoint as="offset" />
          </mxGeometry>
        </mxCell>
        <mxCell id="CkDDalKu-k9pCfHGi__i-97" value="" style="html=1;verticalAlign=bottom;endArrow=blockThin;curved=0;rounded=0;endFill=1;strokeWidth=3;strokeColor=light-dark(#666666,#EDEDED);startSize=6;endSize=4;fontSize=14;" edge="1" parent="1">
          <mxGeometry x="-0.0008" width="80" relative="1" as="geometry">
            <mxPoint x="708" y="1079.13" as="sourcePoint" />
            <mxPoint x="921.87" y="1079.13" as="targetPoint" />
            <mxPoint as="offset" />
          </mxGeometry>
        </mxCell>
        <mxCell id="CkDDalKu-k9pCfHGi__i-98" value="&lt;font style=&quot;font-size: 19px;&quot; color=&quot;#666666&quot;&gt;&lt;b style=&quot;&quot;&gt;\(e_2\)&lt;/b&gt;&lt;/font&gt;" style="text;html=1;align=center;verticalAlign=middle;resizable=0;points=[];autosize=1;strokeColor=none;fillColor=none;strokeWidth=4;fontSize=14;" vertex="1" parent="1">
          <mxGeometry x="653.25" y="1058.97" width="73" height="35" as="geometry" />
        </mxCell>
        <mxCell id="CkDDalKu-k9pCfHGi__i-99" value="&lt;b&gt;&lt;font face=&quot;Comic Sans MS&quot;&gt;...&lt;/font&gt;&lt;/b&gt;" style="text;html=1;align=center;verticalAlign=middle;resizable=0;points=[];autosize=1;strokeColor=none;fillColor=none;strokeWidth=4;fontSize=14;" vertex="1" parent="1">
          <mxGeometry x="851.39" y="1122.5" width="36" height="30" as="geometry" />
        </mxCell>
        <mxCell id="CkDDalKu-k9pCfHGi__i-100" value="&lt;b&gt;&lt;font face=&quot;Comic Sans MS&quot;&gt;...&lt;/font&gt;&lt;/b&gt;" style="text;html=1;align=center;verticalAlign=middle;resizable=0;points=[];autosize=1;strokeColor=none;fillColor=none;strokeWidth=4;fontSize=14;" vertex="1" parent="1">
          <mxGeometry x="852" y="1184.75" width="36" height="30" as="geometry" />
        </mxCell>
        <mxCell id="CkDDalKu-k9pCfHGi__i-101" value="&lt;b&gt;&lt;font face=&quot;Comic Sans MS&quot;&gt;...&lt;/font&gt;&lt;/b&gt;" style="text;html=1;align=center;verticalAlign=middle;resizable=0;points=[];autosize=1;strokeColor=none;fillColor=none;strokeWidth=4;fontSize=14;" vertex="1" parent="1">
          <mxGeometry x="745" y="1122.5" width="36" height="30" as="geometry" />
        </mxCell>
        <mxCell id="CkDDalKu-k9pCfHGi__i-102" value="&lt;b&gt;&lt;font face=&quot;Comic Sans MS&quot;&gt;...&lt;/font&gt;&lt;/b&gt;" style="text;html=1;align=center;verticalAlign=middle;resizable=0;points=[];autosize=1;strokeColor=none;fillColor=none;strokeWidth=4;fontSize=14;" vertex="1" parent="1">
          <mxGeometry x="745" y="1182.5" width="36" height="30" as="geometry" />
        </mxCell>
        <mxCell id="CkDDalKu-k9pCfHGi__i-103" style="rounded=0;orthogonalLoop=1;jettySize=auto;html=1;exitX=1;exitY=0;exitDx=0;exitDy=0;entryX=0.006;entryY=0.08;entryDx=0;entryDy=0;endArrow=none;endFill=0;entryPerimeter=0;strokeWidth=4;endSize=5;strokeColor=light-dark(#b85450, #ededed);curved=1;fontSize=14;" edge="1" parent="1" source="CkDDalKu-k9pCfHGi__i-90" target="CkDDalKu-k9pCfHGi__i-117">
          <mxGeometry relative="1" as="geometry" />
        </mxCell>
        <mxCell id="CkDDalKu-k9pCfHGi__i-104" style="rounded=0;orthogonalLoop=1;jettySize=auto;html=1;entryX=0.024;entryY=0.95;entryDx=0;entryDy=0;endArrow=none;endFill=0;entryPerimeter=0;strokeWidth=4;endSize=5;strokeColor=light-dark(#b85450, #ededed);curved=1;fontSize=14;exitX=1;exitY=1;exitDx=0;exitDy=0;" edge="1" parent="1" source="CkDDalKu-k9pCfHGi__i-90" target="CkDDalKu-k9pCfHGi__i-117">
          <mxGeometry relative="1" as="geometry">
            <mxPoint x="977" y="1094.5" as="sourcePoint" />
            <mxPoint x="1010" y="1027.5" as="targetPoint" />
          </mxGeometry>
        </mxCell>
        <mxCell id="CkDDalKu-k9pCfHGi__i-105" value="&lt;font style=&quot;font-size: 19px;&quot; color=&quot;#666666&quot;&gt;&lt;b style=&quot;&quot;&gt;\(e_0\)&lt;/b&gt;&lt;/font&gt;" style="text;html=1;align=center;verticalAlign=middle;resizable=0;points=[];autosize=1;strokeColor=none;fillColor=none;strokeWidth=4;fontSize=14;" vertex="1" parent="1">
          <mxGeometry x="654.25" y="1042" width="73" height="35" as="geometry" />
        </mxCell>
        <mxCell id="CkDDalKu-k9pCfHGi__i-106" value="&lt;font style=&quot;font-size: 19px;&quot; color=&quot;#666666&quot;&gt;&lt;b style=&quot;&quot;&gt;\(e_1\)&lt;/b&gt;&lt;/font&gt;" style="text;html=1;align=center;verticalAlign=middle;resizable=0;points=[];autosize=1;strokeColor=none;fillColor=none;strokeWidth=4;fontSize=14;" vertex="1" parent="1">
          <mxGeometry x="792" y="1042" width="73" height="35" as="geometry" />
        </mxCell>
        <mxCell id="CkDDalKu-k9pCfHGi__i-107" value="&lt;font style=&quot;font-size: 19px;&quot; color=&quot;#666666&quot;&gt;&lt;b style=&quot;&quot;&gt;\(e_3\)&lt;/b&gt;&lt;/font&gt;" style="text;html=1;align=center;verticalAlign=middle;resizable=0;points=[];autosize=1;strokeColor=none;fillColor=none;strokeWidth=4;fontSize=14;" vertex="1" parent="1">
          <mxGeometry x="898" y="1060" width="73" height="35" as="geometry" />
        </mxCell>
        <mxCell id="CkDDalKu-k9pCfHGi__i-108" value="" style="group" vertex="1" connectable="0" parent="1">
          <mxGeometry x="450" y="970" width="184" height="283" as="geometry" />
        </mxCell>
        <mxCell id="CkDDalKu-k9pCfHGi__i-109" value="" style="group;strokeWidth=4;dashed=1;shadow=1;rounded=0;fontSize=14;" vertex="1" connectable="0" parent="CkDDalKu-k9pCfHGi__i-108">
          <mxGeometry x="0.5" width="181" height="172" as="geometry" />
        </mxCell>
        <mxCell id="CkDDalKu-k9pCfHGi__i-110" value="" style="shape=note;whiteSpace=wrap;html=1;backgroundOutline=1;darkOpacity=0.05;strokeColor=#9673a6;strokeWidth=4;fillColor=light-dark(#faf5ff, #392f3f);shadow=1;fontSize=14;size=23;" vertex="1" parent="CkDDalKu-k9pCfHGi__i-109">
          <mxGeometry y="10" width="181" height="144" as="geometry" />
        </mxCell>
        <mxCell id="CkDDalKu-k9pCfHGi__i-111" value="&lt;div style=&quot;line-height: 100%;&quot;&gt;&lt;font face=&quot;Helvetica&quot; style=&quot;font-size: 18px; line-height: 100%;&quot;&gt;&lt;span style=&quot;background-color: transparent; color: light-dark(rgb(0, 0, 0), rgb(255, 255, 255)); text-wrap-mode: nowrap;&quot;&gt;\(0 &amp;lt; e_1 - e_0 &amp;lt; 2\)&lt;/span&gt;&lt;/font&gt;&lt;/div&gt;&lt;div style=&quot;line-height: 100%;&quot;&gt;&lt;font face=&quot;Helvetica&quot; style=&quot;font-size: 18px; line-height: 100%;&quot;&gt;&lt;span style=&quot;background-color: transparent; color: light-dark(rgb(0, 0, 0), rgb(255, 255, 255));&quot;&gt;\(1 &amp;lt; e_4 - e_2 &amp;lt; 10\)&lt;/span&gt;&lt;/font&gt;&lt;/div&gt;&lt;div style=&quot;line-height: 100%;&quot;&gt;&lt;font face=&quot;Helvetica&quot; style=&quot;font-size: 18px; line-height: 100%;&quot;&gt;&lt;span style=&quot;text-wrap-mode: nowrap;&quot;&gt;\(2 &amp;lt; e_5 - e_4 &amp;lt; 6\)&lt;/span&gt;&lt;span style=&quot;background-color: transparent; color: light-dark(rgb(0, 0, 0), rgb(255, 255, 255));&quot;&gt;&lt;/span&gt;&lt;/font&gt;&lt;/div&gt;&lt;div style=&quot;line-height: 100%;&quot;&gt;&lt;font face=&quot;Helvetica&quot; style=&quot;font-size: 18px; line-height: 100%;&quot;&gt;&lt;span style=&quot;text-wrap-mode: nowrap;&quot;&gt;\(0 &amp;lt; e_9 - e_6 &amp;lt; 8\)&lt;/span&gt;&lt;/font&gt;&lt;/div&gt;&lt;div style=&quot;line-height: 100%;&quot;&gt;&lt;font face=&quot;Helvetica&quot; style=&quot;font-size: 18px; line-height: 100%;&quot;&gt;\(2 &amp;lt; e_{16} - e_{14} &amp;lt; 5\)&lt;/font&gt;&lt;div&gt;&lt;font face=&quot;Helvetica&quot; style=&quot;font-size: 18px; line-height: 100%;&quot;&gt;\(5 &amp;lt; e_{12} - e_{17} &amp;lt; 12\)&lt;/font&gt;&lt;/div&gt;&lt;/div&gt;" style="text;html=1;align=left;verticalAlign=middle;whiteSpace=wrap;rounded=0;" vertex="1" parent="CkDDalKu-k9pCfHGi__i-109">
          <mxGeometry x="3.57" y="23" width="166.87" height="132" as="geometry" />
        </mxCell>
        <mxCell id="CkDDalKu-k9pCfHGi__i-112" value="&lt;span style=&quot;font-style: normal; font-variant-ligatures: normal; font-variant-caps: normal; letter-spacing: normal; orphans: 2; text-align: left; text-indent: 0px; text-transform: none; widows: 2; word-spacing: 0px; -webkit-text-stroke-width: 0px; white-space: nowrap; text-decoration-thickness: initial; text-decoration-style: initial; text-decoration-color: initial; float: none; display: inline !important;&quot;&gt;&lt;font face=&quot;Courier New&quot; style=&quot;color: rgb(76, 0, 153); font-size: 20px;&quot;&gt;&lt;b style=&quot;&quot;&gt;Constraint&lt;/b&gt;&lt;/font&gt;&lt;/span&gt;" style="text;whiteSpace=wrap;html=1;shadow=1;rounded=1;" vertex="1" parent="CkDDalKu-k9pCfHGi__i-109">
          <mxGeometry x="15" y="3" width="147" height="26" as="geometry" />
        </mxCell>
        <mxCell id="CkDDalKu-k9pCfHGi__i-113" value="" style="shape=note;whiteSpace=wrap;html=1;backgroundOutline=1;darkOpacity=0.05;strokeColor=#9673a6;strokeWidth=4;fillColor=light-dark(#faf5ff, #392f3f);shadow=1;fontSize=14;size=22;" vertex="1" parent="CkDDalKu-k9pCfHGi__i-108">
          <mxGeometry x="0.5" y="173" width="181" height="75" as="geometry" />
        </mxCell>
        <mxCell id="CkDDalKu-k9pCfHGi__i-114" value="&lt;span style=&quot;font-style: normal; font-variant-ligatures: normal; font-variant-caps: normal; letter-spacing: normal; orphans: 2; text-align: left; text-indent: 0px; text-transform: none; widows: 2; word-spacing: 0px; -webkit-text-stroke-width: 0px; white-space: nowrap; text-decoration-thickness: initial; text-decoration-style: initial; text-decoration-color: initial; float: none; display: inline !important;&quot;&gt;&lt;font face=&quot;Courier New&quot; style=&quot;color: rgb(76, 0, 153); font-size: 20px;&quot;&gt;&lt;b style=&quot;&quot;&gt;Property&lt;/b&gt;&lt;/font&gt;&lt;/span&gt;" style="text;whiteSpace=wrap;html=1;shadow=1;rounded=1;" vertex="1" parent="CkDDalKu-k9pCfHGi__i-108">
          <mxGeometry x="25.50000000000002" y="166" width="146.8" height="25.57" as="geometry" />
        </mxCell>
        <mxCell id="CkDDalKu-k9pCfHGi__i-115" value="&lt;font style=&quot;font-size: 18px;&quot;&gt;\(0 &amp;lt; e_{10} - e_3 &amp;lt; 50\)&lt;/font&gt;&lt;div&gt;&lt;span style=&quot;font-size: 18px;&quot;&gt;\(0 &amp;lt; e_3 - e_0\)&lt;/span&gt;&lt;/div&gt;" style="text;html=1;align=left;verticalAlign=middle;whiteSpace=wrap;rounded=0;" vertex="1" parent="CkDDalKu-k9pCfHGi__i-108">
          <mxGeometry x="7" y="204" width="177.5" height="29" as="geometry" />
        </mxCell>
        <mxCell id="CkDDalKu-k9pCfHGi__i-116" value="" style="group" vertex="1" connectable="0" parent="1">
          <mxGeometry x="995.73" y="997.58" width="225.27" height="159.85" as="geometry" />
        </mxCell>
        <mxCell id="CkDDalKu-k9pCfHGi__i-117" value="" style="rounded=1;whiteSpace=wrap;html=1;strokeWidth=4;fillColor=#FFFFFF;strokeColor=light-dark(#6c8ebf, #a0bcd2);fontSize=14;" vertex="1" parent="CkDDalKu-k9pCfHGi__i-116">
          <mxGeometry x="14.457482412101948" width="199.79345390714917" height="154.95000000000002" as="geometry" />
        </mxCell>
        <mxCell id="CkDDalKu-k9pCfHGi__i-118" value="&lt;font style=&quot;color: rgb(0, 102, 0);&quot;&gt;&lt;b&gt;FCA&lt;/b&gt;&lt;/font&gt;" style="shape=umlLifeline;perimeter=lifelinePerimeter;whiteSpace=wrap;html=1;container=1;dropTarget=0;collapsible=0;recursiveResize=0;outlineConnect=0;portConstraint=eastwest;newEdgeStyle={&quot;curved&quot;:0,&quot;rounded&quot;:0};size=20;fontSize=14;strokeWidth=4;fillColor=#d5e8d4;strokeColor=#82b366;rounded=1;" vertex="1" parent="CkDDalKu-k9pCfHGi__i-116">
          <mxGeometry x="142.14450252951102" y="14.500000000000004" width="40.57918536775198" height="120.45000000000003" as="geometry" />
        </mxCell>
        <mxCell id="CkDDalKu-k9pCfHGi__i-119" value="&lt;font style=&quot;color: rgb(0, 102, 0);&quot;&gt;&lt;b&gt;SCS&lt;/b&gt;&lt;/font&gt;" style="shape=umlLifeline;perimeter=lifelinePerimeter;whiteSpace=wrap;html=1;container=1;dropTarget=0;collapsible=0;recursiveResize=0;outlineConnect=0;portConstraint=eastwest;newEdgeStyle={&quot;curved&quot;:0,&quot;rounded&quot;:0};size=20;fontSize=14;strokeWidth=4;fillColor=#d5e8d4;strokeColor=#82b366;rounded=1;" vertex="1" parent="CkDDalKu-k9pCfHGi__i-116">
          <mxGeometry x="87.74645609028407" y="14.500000000000004" width="40.57918536775198" height="120.45000000000003" as="geometry" />
        </mxCell>
        <mxCell id="CkDDalKu-k9pCfHGi__i-120" value="&lt;font style=&quot;color: rgb(0, 102, 0);&quot;&gt;&lt;b&gt;PCS&lt;/b&gt;&lt;/font&gt;" style="shape=umlLifeline;perimeter=lifelinePerimeter;whiteSpace=wrap;html=1;container=1;dropTarget=0;collapsible=0;recursiveResize=0;outlineConnect=0;portConstraint=eastwest;newEdgeStyle={&quot;curved&quot;:0,&quot;rounded&quot;:0};size=20;fontSize=14;strokeWidth=4;fillColor=#d5e8d4;strokeColor=#82b366;rounded=1;" vertex="1" parent="CkDDalKu-k9pCfHGi__i-116">
          <mxGeometry x="32.14385782851213" y="14.500000000000004" width="40.57918536775198" height="120.45000000000003" as="geometry" />
        </mxCell>
        <mxCell id="CkDDalKu-k9pCfHGi__i-121" value="&lt;div&gt;&lt;div&gt;&lt;div&gt;&lt;br&gt;&lt;/div&gt;&lt;/div&gt;&lt;/div&gt;" style="text;align=left;verticalAlign=middle;rounded=0;horizontal=1;fontSize=14;html=1;strokeWidth=4;" vertex="1" parent="CkDDalKu-k9pCfHGi__i-116">
          <mxGeometry x="64.368887015177" y="144.54999999999998" width="112.82818783240367" height="15.300000000000002" as="geometry" />
        </mxCell>
        <mxCell id="CkDDalKu-k9pCfHGi__i-122" value="" style="html=1;verticalAlign=bottom;endArrow=blockThin;curved=0;rounded=0;endFill=1;strokeWidth=3;strokeColor=light-dark(#666666,#EDEDED);startSize=6;endSize=4;fontSize=14;" edge="1" parent="CkDDalKu-k9pCfHGi__i-116" target="CkDDalKu-k9pCfHGi__i-118">
          <mxGeometry x="-0.0008" width="80" relative="1" as="geometry">
            <mxPoint x="52.648166400649735" y="87.06500000000013" as="sourcePoint" />
            <mxPoint x="176.06067583344156" y="87.06500000000013" as="targetPoint" />
            <mxPoint as="offset" />
          </mxGeometry>
        </mxCell>
        <mxCell id="CkDDalKu-k9pCfHGi__i-123" value="" style="html=1;verticalAlign=bottom;endArrow=blockThin;curved=0;rounded=0;strokeWidth=3;endSize=4;endFill=1;strokeColor=#666666;fontSize=14;" edge="1" parent="CkDDalKu-k9pCfHGi__i-116" target="CkDDalKu-k9pCfHGi__i-119">
          <mxGeometry width="80" relative="1" as="geometry">
            <mxPoint x="53.30314363545405" y="57.00111111111114" as="sourcePoint" />
            <mxPoint x="176.21652484109492" y="57.001111111111314" as="targetPoint" />
            <Array as="points">
              <mxPoint x="74.1210459018216" y="57.00111111111114" />
            </Array>
          </mxGeometry>
        </mxCell>
        <mxCell id="CkDDalKu-k9pCfHGi__i-124" value="&lt;font style=&quot;font-size: 19px;&quot; color=&quot;#666666&quot;&gt;&lt;b style=&quot;&quot;&gt;\(e_0\)&lt;/b&gt;&lt;/font&gt;" style="text;html=1;align=center;verticalAlign=middle;resizable=0;points=[];autosize=1;strokeColor=none;fillColor=none;strokeWidth=4;fontSize=14;" vertex="1" parent="CkDDalKu-k9pCfHGi__i-116">
          <mxGeometry x="1.6169334544039127" y="36.50000000000001" width="73" height="35" as="geometry" />
        </mxCell>
        <mxCell id="CkDDalKu-k9pCfHGi__i-125" value="&lt;font style=&quot;font-size: 19px;&quot; color=&quot;#666666&quot;&gt;&lt;b style=&quot;&quot;&gt;\(e_1\)&lt;/b&gt;&lt;/font&gt;" style="text;html=1;align=center;verticalAlign=middle;resizable=0;points=[];autosize=1;strokeColor=none;fillColor=none;strokeWidth=4;fontSize=14;" vertex="1" parent="CkDDalKu-k9pCfHGi__i-116">
          <mxGeometry x="91.3796860812038" y="39.00000000000001" width="73" height="35" as="geometry" />
        </mxCell>
        <mxCell id="CkDDalKu-k9pCfHGi__i-126" value="&lt;font style=&quot;font-size: 19px;&quot; color=&quot;#666666&quot;&gt;&lt;b style=&quot;&quot;&gt;\(e_2\)&lt;/b&gt;&lt;/font&gt;" style="text;html=1;align=center;verticalAlign=middle;resizable=0;points=[];autosize=1;strokeColor=none;fillColor=none;strokeWidth=4;fontSize=14;" vertex="1" parent="CkDDalKu-k9pCfHGi__i-116">
          <mxGeometry y="65.97000000000001" width="73" height="35" as="geometry" />
        </mxCell>
        <mxCell id="CkDDalKu-k9pCfHGi__i-127" value="&lt;font style=&quot;font-size: 19px;&quot; color=&quot;#666666&quot;&gt;&lt;b style=&quot;&quot;&gt;\(e_3\)&lt;/b&gt;&lt;/font&gt;" style="text;html=1;align=center;verticalAlign=middle;resizable=0;points=[];autosize=1;strokeColor=none;fillColor=none;strokeWidth=4;fontSize=14;" vertex="1" parent="CkDDalKu-k9pCfHGi__i-116">
          <mxGeometry x="142.16389025813984" y="68.42000000000002" width="73" height="35" as="geometry" />
        </mxCell>
        <mxCell id="CkDDalKu-k9pCfHGi__i-128" value="" style="group;strokeWidth=2;" vertex="1" connectable="0" parent="1">
          <mxGeometry x="1205.19" y="1007.5" width="329.63" height="140" as="geometry" />
        </mxCell>
        <mxCell id="CkDDalKu-k9pCfHGi__i-129" value="" style="rounded=1;whiteSpace=wrap;html=1;strokeWidth=4;fillColor=none;strokeColor=light-dark(#6c8ebf, #46a8af);" vertex="1" parent="CkDDalKu-k9pCfHGi__i-128">
          <mxGeometry x="53.70971242424252" width="199.77575757575755" height="140" as="geometry" />
        </mxCell>
        <mxCell id="CkDDalKu-k9pCfHGi__i-130" value="&lt;div style=&quot;text-align: left;&quot;&gt;&lt;span style=&quot;background-color: initial;&quot;&gt;&lt;font style=&quot;font-size: 24px;&quot; face=&quot;Courier New&quot;&gt;&lt;b style=&quot;&quot;&gt;\(e_1\)&lt;/b&gt;&lt;/font&gt;&lt;/span&gt;&lt;/div&gt;" style="ellipse;whiteSpace=wrap;html=1;aspect=fixed;strokeWidth=2;fillColor=#b1ddf0;strokeColor=#10739e;" vertex="1" parent="CkDDalKu-k9pCfHGi__i-128">
          <mxGeometry x="205.53928818181825" y="10" width="29.966363636363635" height="29.966363636363635" as="geometry" />
        </mxCell>
        <mxCell id="CkDDalKu-k9pCfHGi__i-131" value="&lt;div style=&quot;text-align: left;&quot;&gt;&lt;span style=&quot;background-color: initial;&quot;&gt;&lt;font style=&quot;font-size: 24px;&quot; face=&quot;Courier New&quot;&gt;&lt;b style=&quot;&quot;&gt;\(e_0\)&lt;/b&gt;&lt;/font&gt;&lt;/span&gt;&lt;/div&gt;" style="ellipse;whiteSpace=wrap;html=1;aspect=fixed;strokeWidth=2;fillColor=#b1ddf0;strokeColor=#10739e;" vertex="1" parent="CkDDalKu-k9pCfHGi__i-128">
          <mxGeometry x="73.68728818181827" y="10" width="29.966363636363635" height="29.966363636363635" as="geometry" />
        </mxCell>
        <mxCell id="CkDDalKu-k9pCfHGi__i-132" value="&lt;div style=&quot;text-align: left;&quot;&gt;&lt;span style=&quot;background-color: initial;&quot;&gt;&lt;font style=&quot;font-size: 24px;&quot; face=&quot;Courier New&quot;&gt;&lt;b style=&quot;&quot;&gt;\(e_3\)&lt;/b&gt;&lt;/font&gt;&lt;/span&gt;&lt;/div&gt;" style="ellipse;whiteSpace=wrap;html=1;aspect=fixed;strokeWidth=2;fillColor=#b1ddf0;strokeColor=#10739e;" vertex="1" parent="CkDDalKu-k9pCfHGi__i-128">
          <mxGeometry x="73.68728818181827" y="58" width="29.966363636363635" height="29.966363636363635" as="geometry" />
        </mxCell>
        <mxCell id="CkDDalKu-k9pCfHGi__i-133" value="&lt;div style=&quot;text-align: left;&quot;&gt;&lt;span style=&quot;background-color: initial;&quot;&gt;&lt;font style=&quot;font-size: 24px;&quot; face=&quot;Courier New&quot;&gt;&lt;b style=&quot;&quot;&gt;\(e_2\)&lt;/b&gt;&lt;/font&gt;&lt;/span&gt;&lt;/div&gt;" style="ellipse;whiteSpace=wrap;html=1;aspect=fixed;strokeWidth=2;fillColor=#b1ddf0;strokeColor=#10739e;" vertex="1" parent="CkDDalKu-k9pCfHGi__i-128">
          <mxGeometry x="205.53928818181825" y="58" width="29.966363636363635" height="29.966363636363635" as="geometry" />
        </mxCell>
        <mxCell id="CkDDalKu-k9pCfHGi__i-134" style="rounded=0;orthogonalLoop=1;jettySize=auto;html=1;endArrow=openThin;endFill=0;strokeColor=#82b366;strokeWidth=3;fillColor=#d5e8d4;endSize=3;entryX=0;entryY=0.5;entryDx=0;entryDy=0;exitX=1;exitY=0.5;exitDx=0;exitDy=0;startSize=3;" edge="1" parent="CkDDalKu-k9pCfHGi__i-128" source="CkDDalKu-k9pCfHGi__i-131" target="CkDDalKu-k9pCfHGi__i-130">
          <mxGeometry relative="1" as="geometry">
            <mxPoint x="-95.4974756729456" y="54.84931506849307" as="sourcePoint" />
            <mxPoint x="-87.89604515151504" y="56.16438356164383" as="targetPoint" />
          </mxGeometry>
        </mxCell>
        <mxCell id="CkDDalKu-k9pCfHGi__i-135" style="rounded=0;orthogonalLoop=1;jettySize=auto;html=1;endArrow=openThin;endFill=0;strokeColor=#82b366;strokeWidth=3;fillColor=#d5e8d4;endSize=3;entryX=1;entryY=0.5;entryDx=0;entryDy=0;exitX=0;exitY=0.5;exitDx=0;exitDy=0;startSize=3;" edge="1" parent="CkDDalKu-k9pCfHGi__i-128" source="CkDDalKu-k9pCfHGi__i-133" target="CkDDalKu-k9pCfHGi__i-132">
          <mxGeometry relative="1" as="geometry">
            <mxPoint x="113.64243969696979" y="35" as="sourcePoint" />
            <mxPoint x="215.52807606060603" y="35" as="targetPoint" />
            <Array as="points" />
          </mxGeometry>
        </mxCell>
        <mxCell id="CkDDalKu-k9pCfHGi__i-136" style="rounded=0;orthogonalLoop=1;jettySize=auto;html=1;endArrow=openThin;endFill=0;strokeColor=#82b366;strokeWidth=3;fillColor=#d5e8d4;endSize=3;entryX=-0.041;entryY=0.233;entryDx=0;entryDy=0;exitX=1;exitY=0.5;exitDx=0;exitDy=0;startSize=3;entryPerimeter=0;" edge="1" parent="CkDDalKu-k9pCfHGi__i-128" source="CkDDalKu-k9pCfHGi__i-131" target="CkDDalKu-k9pCfHGi__i-133">
          <mxGeometry relative="1" as="geometry">
            <mxPoint x="215.52807606060603" y="80" as="sourcePoint" />
            <mxPoint x="113.64243969696979" y="80" as="targetPoint" />
            <Array as="points" />
          </mxGeometry>
        </mxCell>
        <mxCell id="CkDDalKu-k9pCfHGi__i-137" value="&lt;div style=&quot;text-align: left;&quot;&gt;&lt;span style=&quot;background-color: initial;&quot;&gt;&lt;font style=&quot;font-size: 24px;&quot; face=&quot;Courier New&quot;&gt;&lt;b style=&quot;&quot;&gt;\(0 &amp;lt; e_1 - e_0 &amp;lt; 2\)&lt;/b&gt;&lt;/font&gt;&lt;/span&gt;&lt;/div&gt;" style="text;html=1;align=center;verticalAlign=middle;resizable=0;points=[];autosize=1;strokeColor=none;fillColor=none;strokeWidth=3;" vertex="1" parent="CkDDalKu-k9pCfHGi__i-128">
          <mxGeometry x="-12.98542424242424" y="89.99910958904104" width="330" height="40" as="geometry" />
        </mxCell>
        <mxCell id="CkDDalKu-k9pCfHGi__i-138" value="" style="html=1;shadow=1;dashed=0;align=center;verticalAlign=middle;shape=mxgraph.arrows2.arrow;dy=0.62;dx=18.73;notch=0;fillColor=#f8cecc;strokeColor=#b85450;strokeWidth=4;fontSize=14;" vertex="1" parent="CkDDalKu-k9pCfHGi__i-128">
          <mxGeometry x="11.796758484848656" y="44.91499999999999" width="31.69442393939394" height="33.5" as="geometry" />
        </mxCell>
      </root>
    </mxGraphModel>
  </diagram>
</mxfile>
